# xmcd CD database file
#
# Track frame offsets:
#	150
#	13101
#	40360
#	56898
#	90659
#	105082
#	118207
#	130908
#	158806
#	177440
#	199543
#	215611
#	249404
#	267330
#	278869
#
# Disc length: 3923 seconds
#
# Revision: 0
# Processed by: cddbd v1.5.1PL2 Copyright (c) Steve Scherf et al.
# Submitted via: CDex 1.51
#
DISCID=d70f510f
DTITLE=Héctor Infanzón - Impulsos [CD1)
DYEAR=2004
DGENRE=Jazz
TTITLE0=El Revolumento
TTITLE1=Hasta Pronto (a Rodolfo Cruz)
TTITLE2=La Verbena
TTITLE3=Puebleando
TTITLE4=La Intimidad de los Sueños
TTITLE5=Sin Tapujos
TTITLE6=Sambita
TTITLE7=Arabesca
TTITLE8=De este lado... Desde aqui
TTITLE9=Entre Blues y Buenas Noches
TTITLE10=Anoche
TTITLE11=Evocaciones
TTITLE12=Aquella Pequeñita (a Gisy)
TTITLE13=Paseo corto
TTITLE14=Caravaneando en el Metro Revolucion
EXTD=YEAR: 2004
EXTT0=
EXTT1=
EXTT2=
EXTT3=
EXTT4=
EXTT5=
EXTT6=
EXTT7=
EXTT8=
EXTT9=
EXTT10=
EXTT11=
EXTT12=
EXTT13=
EXTT14=
PLAYORDER=
